<svg width="66" height="24" viewBox="0 0 66 24" fill="none" xmlns="http://www.w3.org/2000/svg">
<g clip-path="url(#clip0_1089_147)">
<path d="M33.0001 8.00049C32.209 8.00049 31.4356 8.23508 30.7778 8.67461C30.12 9.11414 29.6074 9.73885 29.3046 10.4698C29.0019 11.2007 28.9226 12.0049 29.077 12.7808C29.2313 13.5568 29.6123 14.2695 30.1717 14.8289C30.7311 15.3883 31.4438 15.7693 32.2198 15.9236C32.9957 16.078 33.8 15.9988 34.5309 15.696C35.2618 15.3933 35.8865 14.8806 36.326 14.2228C36.7655 13.565 37.0001 12.7916 37.0001 12.0005C37.0001 10.9396 36.5787 9.92221 35.8286 9.17206C35.0784 8.42192 34.061 8.00049 33.0001 8.00049ZM33.0001 14.0005C32.6046 14.0005 32.2179 13.8832 31.889 13.6634C31.5601 13.4437 31.3037 13.1313 31.1524 12.7659C31.001 12.4004 30.9614 11.9983 31.0386 11.6103C31.1157 11.2223 31.3062 10.866 31.5859 10.5863C31.8656 10.3066 32.222 10.1161 32.6099 10.0389C32.9979 9.96175 33.4 10.0014 33.7655 10.1527C34.1309 10.3041 34.4433 10.5604 34.6631 10.8893C34.8828 11.2182 35.0001 11.6049 35.0001 12.0005C35.0001 12.5309 34.7894 13.0396 34.4143 13.4147C34.0393 13.7898 33.5306 14.0005 33.0001 14.0005Z" fill="#A2A2B5"/>
<path d="M42.294 13.9L41.85 13.644C42.0499 12.5564 42.0499 11.4416 41.85 10.354L42.294 10.098C42.6355 9.90102 42.9348 9.63871 43.1748 9.32606C43.4149 9.01341 43.591 8.65654 43.6932 8.27582C43.7953 7.8951 43.8215 7.49799 43.7702 7.10716C43.7188 6.71633 43.591 6.33944 43.394 5.998C43.1971 5.65656 42.9348 5.35727 42.6221 5.1172C42.3095 4.87714 41.9526 4.70101 41.5719 4.59886C41.1911 4.49672 40.794 4.47056 40.4032 4.52189C40.0124 4.57321 39.6355 4.70102 39.294 4.898L38.849 5.155C38.0086 4.43692 37.0427 3.88025 36 3.513V3C36 2.20435 35.684 1.44129 35.1214 0.87868C34.5588 0.31607 33.7957 0 33 0C32.2044 0 31.4413 0.31607 30.8787 0.87868C30.3161 1.44129 30 2.20435 30 3V3.513C28.9574 3.88157 27.9919 4.4396 27.152 5.159L26.705 4.9C26.0155 4.50218 25.1961 4.39457 24.4272 4.60086C23.6583 4.80715 23.0029 5.31044 22.605 6C22.2072 6.68956 22.0996 7.50892 22.3059 8.27782C22.5122 9.04672 23.0155 9.70218 23.705 10.1L24.149 10.356C23.9492 11.4436 23.9492 12.5584 24.149 13.646L23.705 13.902C23.0155 14.2998 22.5122 14.9553 22.3059 15.7242C22.0996 16.4931 22.2072 17.3124 22.605 18.002C23.0029 18.6916 23.6583 19.1948 24.4272 19.4011C25.1961 19.6074 26.0155 19.4998 26.705 19.102L27.15 18.845C27.9908 19.5632 28.957 20.1199 30 20.487V21C30 21.7956 30.3161 22.5587 30.8787 23.1213C31.4413 23.6839 32.2044 24 33 24C33.7957 24 34.5588 23.6839 35.1214 23.1213C35.684 22.5587 36 21.7956 36 21V20.487C37.0427 20.1184 38.0082 19.5604 38.848 18.841L39.295 19.099C39.9846 19.4968 40.804 19.6044 41.5729 19.3981C42.3418 19.1918 42.9972 18.6886 43.395 17.999C43.7929 17.3094 43.9005 16.4901 43.6942 15.7212C43.4879 14.9523 42.9846 14.2968 42.295 13.899L42.294 13.9ZM39.746 10.124C40.0847 11.3511 40.0847 12.6469 39.746 13.874C39.6869 14.0876 39.7004 14.3147 39.7844 14.5198C39.8684 14.7249 40.0181 14.8963 40.21 15.007L41.294 15.633C41.5239 15.7656 41.6916 15.9841 41.7603 16.2403C41.829 16.4966 41.7932 16.7697 41.6605 16.9995C41.5279 17.2293 41.3095 17.397 41.0532 17.4658C40.7969 17.5345 40.5239 17.4986 40.294 17.366L39.208 16.738C39.0159 16.6267 38.7923 16.5826 38.5723 16.6124C38.3523 16.6423 38.1485 16.7445 37.993 16.903C37.103 17.8117 35.9816 18.46 34.75 18.778C34.5351 18.8333 34.3446 18.9585 34.2086 19.1339C34.0727 19.3094 33.9989 19.525 33.999 19.747V21C33.999 21.2652 33.8937 21.5196 33.7062 21.7071C33.5186 21.8946 33.2643 22 32.999 22C32.7338 22 32.4795 21.8946 32.2919 21.7071C32.1044 21.5196 31.999 21.2652 31.999 21V19.748C31.9992 19.526 31.9254 19.3104 31.7894 19.1349C31.6535 18.9595 31.463 18.8343 31.248 18.779C30.0164 18.4597 28.8954 17.81 28.006 16.9C27.8506 16.7415 27.6468 16.6393 27.4268 16.6094C27.2068 16.5796 26.9831 16.6237 26.791 16.735L25.707 17.362C25.5933 17.4287 25.4674 17.4722 25.3368 17.4901C25.2061 17.508 25.0732 17.4998 24.9457 17.4661C24.8182 17.4324 24.6986 17.3738 24.5939 17.2937C24.4891 17.2136 24.4012 17.1135 24.3353 16.9993C24.2693 16.8851 24.2266 16.759 24.2096 16.6282C24.1926 16.4974 24.2017 16.3646 24.2362 16.2373C24.2708 16.11 24.3302 15.9909 24.411 15.8866C24.4918 15.7824 24.5924 15.6952 24.707 15.63L25.791 15.004C25.983 14.8933 26.1327 14.7219 26.2167 14.5168C26.3007 14.3117 26.3142 14.0846 26.255 13.871C25.9164 12.6439 25.9164 11.3481 26.255 10.121C26.3131 9.90788 26.299 9.68153 26.2149 9.47729C26.1307 9.27305 25.9814 9.10241 25.79 8.992L24.706 8.366C24.4762 8.23339 24.3085 8.01492 24.2398 7.75865C24.171 7.50239 24.2069 7.22931 24.3395 6.9995C24.4722 6.76969 24.6906 6.60197 24.9469 6.53324C25.2032 6.46451 25.4762 6.50039 25.706 6.633L26.792 7.261C26.9836 7.37251 27.2068 7.41721 27.4266 7.38807C27.6463 7.35893 27.8502 7.25759 28.006 7.1C28.8961 6.19134 30.0175 5.54302 31.249 5.225C31.4647 5.16956 31.6556 5.04375 31.7917 4.8675C31.9277 4.69125 32.001 4.47464 32 4.252V3C32 2.73478 32.1054 2.48043 32.2929 2.29289C32.4805 2.10536 32.7348 2 33 2C33.2653 2 33.5196 2.10536 33.7071 2.29289C33.8947 2.48043 34 2.73478 34 3V4.252C33.9999 4.47396 34.0737 4.68964 34.2096 4.86508C34.3456 5.04052 34.5361 5.16573 34.751 5.221C35.9831 5.54015 37.1044 6.18988 37.994 7.1C38.1495 7.25847 38.3533 7.36069 38.5733 7.39057C38.7933 7.42044 39.0169 7.37626 39.209 7.265L40.293 6.638C40.4068 6.5713 40.5327 6.52777 40.6633 6.5099C40.794 6.49204 40.9269 6.50019 41.0544 6.5339C41.1819 6.56761 41.3015 6.6262 41.4062 6.70631C41.511 6.78642 41.5989 6.88646 41.6648 7.00067C41.7307 7.11488 41.7734 7.24101 41.7904 7.37179C41.8074 7.50257 41.7984 7.63542 41.7639 7.76269C41.7293 7.88997 41.6699 8.00915 41.5891 8.11337C41.5083 8.2176 41.4077 8.30482 41.293 8.37L40.209 8.996C40.0181 9.10671 39.8691 9.27748 39.7854 9.48169C39.7016 9.68591 39.6878 9.9121 39.746 10.125V10.124Z" fill="#A2A2B5"/>
</g>
<defs>
<clipPath id="clip0_1089_147">
<rect width="24" height="24" fill="white" transform="translate(21)"/>
</clipPath>
</defs>
</svg>
