<svg width="66" height="24" viewBox="0 0 66 24" fill="none" xmlns="http://www.w3.org/2000/svg">
<path d="M41.3408 9.80134L35.652 4.11184C34.9479 3.40984 33.9943 3.01562 33 3.01562C32.0058 3.01562 31.0521 3.40984 30.348 4.11184L24.6593 9.80134C24.4496 10.0097 24.2833 10.2576 24.1702 10.5306C24.057 10.8037 23.9992 11.0965 24 11.3921V18.7548C24 19.3516 24.2371 19.9239 24.659 20.3458C25.081 20.7678 25.6533 21.0048 26.25 21.0048H39.75C40.3467 21.0048 40.919 20.7678 41.341 20.3458C41.763 19.9239 42 19.3516 42 18.7548V11.3921C42.0009 11.0965 41.943 10.8037 41.8298 10.5306C41.7167 10.2576 41.5504 10.0097 41.3408 9.80134ZM35.25 19.5048H30.75V16.5543C30.75 15.9576 30.9871 15.3853 31.409 14.9634C31.831 14.5414 32.4033 14.3043 33 14.3043C33.5967 14.3043 34.169 14.5414 34.591 14.9634C35.013 15.3853 35.25 15.9576 35.25 16.5543V19.5048ZM40.5 18.7548C40.5 18.9538 40.421 19.1445 40.2803 19.2852C40.1397 19.4258 39.9489 19.5048 39.75 19.5048H36.75V16.5543C36.75 15.5598 36.3549 14.606 35.6517 13.9027C34.9484 13.1994 33.9946 12.8043 33 12.8043C32.0054 12.8043 31.0516 13.1994 30.3484 13.9027C29.6451 14.606 29.25 15.5598 29.25 16.5543V19.5048H26.25C26.0511 19.5048 25.8603 19.4258 25.7197 19.2852C25.579 19.1445 25.5 18.9538 25.5 18.7548V11.3921C25.5007 11.1933 25.5797 11.0028 25.7198 10.8618L31.4085 5.17459C31.8313 4.75379 32.4035 4.51755 33 4.51755C33.5965 4.51755 34.1687 4.75379 34.5915 5.17459L40.2803 10.8641C40.4198 11.0045 40.4987 11.1941 40.5 11.3921V18.7548Z" fill="white"/>
</svg>
